#!OML:ASF G:\JayActor3\Patient Classification 1\Patient 1\Session 6\male.ASF
:FULLY-SPECIFIED
:DEGREES
1345
root 4.95667 15.7312 -3.4917 46.3474 -50.3897 15.3695
lowerback 53.2479 -0.21383 6.32496
upperback 18.0361 1.66457 4.8753
thorax -0.668586 0.395583 1.77359
lowerneck -12.8892 -1.5073 4.32996
upperneck -5.4501 -2.77627 -0.304684
head 0.371102 -1.56317 -0.933176
rclavicle 6.20208e-014 3.81667e-014
rhumerus 82.2479 -16.4883 -24.8351
rradius 22.0398
rwrist 7.89127
rhand -30.6389 -21.4827
rfingers 7.12502
rthumb -3.93444 -51.4261
lclavicle 6.20208e-014 3.81667e-014
lhumerus 94.0549 6.53046 30.7026
lradius 24.7867
lwrist 28.8284
lhand -37.2137 -5.26839
lfingers 7.12502
lthumb -10.2808 24.4603
rfemur -81.6802 -17.2685 1.1823
rtibia 50.4319
rfoot -22.792 -12.0941
rtoes 0.539226
lfemur -82.2395 6.76345 -44.9508
ltibia 34.8199
lfoot 0.969433 -22.1764
ltoes 28.2528
1346
root 4.95715 15.7315 -3.493 46.3304 -50.3858 15.3761
lowerback 53.23 -0.225983 6.36094
upperback 18.027 1.66648 4.86492
thorax -0.674301 0.399477 1.74517
lowerneck -12.9112 -1.50658 4.28163
upperneck -5.48712 -2.76983 -0.273643
head 0.36382 -1.55963 -0.914706
rclavicle -7.4743e-014 -7.4743e-014
rhumerus 82.2419 -16.4673 -24.9218
rradius 22.0047
rwrist 7.93524
rhand -30.6304 -21.4486
rfingers 7.12502
rthumb -3.92624 -51.3922
lclavicle -7.4743e-014 -7.4743e-014
lhumerus 94.0749 6.61419 30.7889
lradius 24.8606
lwrist 28.9485
lhand -36.9218 -5.22774
lfingers 7.12502
lthumb -9.99917 24.5147
rfemur -81.6651 -17.2625 1.16873
rtibia 50.4296
rfoot -22.7918 -12.1015
rtoes 0.527278
lfemur -82.2213 6.75391 -44.9292
ltibia 34.8075
lfoot 0.962625 -22.154
ltoes 28.1777
1347
root 4.95742 15.7322 -3.49436 46.3239 -50.3801 15.3796
lowerback 53.2056 -0.237786 6.39594
upperback 18.0196 1.66772 4.85423
thorax -0.677484 0.403184 1.71695
lowerneck -12.9373 -1.50502 4.23732
upperneck -5.52923 -2.76311 -0.244093
head 0.355526 -1.55622 -0.897395
rclavicle -3.18055e-014 6.36111e-015
rhumerus 82.2323 -16.4505 -24.9928
rradius 21.9746
rwrist 7.9659
rhand -30.6228 -21.4221
rfingers 7.12502
rthumb -3.91892 -51.3658
lclavicle -3.18055e-014 6.36111e-015
lhumerus 94.0954 6.69937 30.8591
lradius 24.9365
lwrist 29.1265
lhand -36.6619 -5.14409
lfingers 7.12502
lthumb -9.74843 24.6103
rfemur -81.6576 -17.2555 1.15926
rtibia 50.4275
rfoot -22.7969 -12.1122
rtoes 0.525181
lfemur -82.2113 6.74232 -44.9071
ltibia 34.7945
lfoot 0.963371 -22.1293
ltoes 28.1096
1348
root 4.95749 15.733 -3.49569 46.3218 -50.3724 15.3859
lowerback 53.1766 -0.250246 6.42997
upperback 18.0129 1.66767 4.84394
thorax -0.679571 0.40636 1.68994
lowerneck -12.9637 -1.50363 4.19668
upperneck -5.57688 -2.75723 -0.21665
head 0.345436 -1.55349 -0.881356
rclavicle -1.28812e-013 -2.38542e-014
rhumerus 82.2116 -16.4372 -25.0353
rradius 21.9527
rwrist 7.98087
rhand -30.613 -21.401
rfingers 7.12502
rthumb -3.90942 -51.3448
lclavicle -1.28812e-013 -2.38542e-014
lhumerus 94.1133 6.78704 30.903
lradius 25.0189
lwrist 29.3999
lhand -36.4142 -5.01113
lfingers 7.12502
lthumb -9.50951 24.7543
rfemur -81.6567 -17.252 1.1522
rtibia 50.4269
rfoot -22.8066 -12.1238
rtoes 0.540543
lfemur -82.2073 6.72853 -44.8903
ltibia 34.7813
lfoot 0.978524 -22.1056
ltoes 28.071
1349
root 4.95737 15.7337 -3.49707 46.3249 -50.3667 15.3929
lowerback 53.1439 -0.258328 6.4567
upperback 18.0067 1.66912 4.83558
thorax -0.681513 0.409718 1.66762
lowerneck -12.9908 -1.50072 4.159
upperneck -5.62802 -2.74974 -0.190671
head 0.334317 -1.5501 -0.866193
rclavicle 3.97569e-014 -3.97569e-014
rhumerus 82.184 -16.425 -25.0578
rradius 21.9377
rwrist 7.99075
rhand -30.6025 -21.3895
rfingers 7.12502
rthumb -3.8993 -51.3336
lclavicle 3.97569e-014 -3.97569e-014
lhumerus 94.128 6.87436 30.9296
lradius 25.1073
lwrist 29.7708
lhand -36.1652 -4.84956
lfingers 7.12502
lthumb -9.26924 24.9267
rfemur -81.6668 -17.2512 1.1497
rtibia 50.4303
rfoot -22.8161 -12.1317
rtoes 0.57014
lfemur -82.2111 6.71474 -44.8785
ltibia 34.7697
lfoot 1.00207 -22.0809
ltoes 28.054
1350
root 4.9572 15.7342 -3.49845 46.3279 -50.36 15.4041
lowerback 53.1094 -0.26457 6.47944
upperback 17.9999 1.6712 4.83023
thorax -0.684236 0.412923 1.65002
lowerneck -13.0124 -1.49677 4.12625
upperneck -5.68612 -2.74129 -0.169841
head 0.319984 -1.54655 -0.85329
rclavicle -2.14687e-013 1.27222e-014
rhumerus 82.1399 -16.4136 -25.0427
rradius 21.9364
rwrist 7.9822
rhand -30.5919 -21.386
rfingers 7.12502
rthumb -3.88904 -51.3303
lclavicle -2.14687e-013 1.27222e-014
lhumerus 94.1431 6.95736 30.9562
lradius 25.197
lwrist 30.2043
lhand -35.891 -4.63975
lfingers 7.12502
lthumb -9.00465 25.1481
rfemur -81.684 -17.2565 1.1504
rtibia 50.4385
rfoot -22.822 -12.1405
rtoes 0.591154
lfemur -82.2185 6.69873 -44.8708
ltibia 34.7602
lfoot 1.03185 -22.0602
ltoes 28.0623
1351
root 4.95699 15.7343 -3.49989 46.3261 -50.3558 15.4186
lowerback 53.0803 -0.265839 6.49325
upperback 17.992 1.6756 4.82846
thorax -0.689524 0.416275 1.63951
lowerneck -13.0296 -1.49096 4.10206
upperneck -5.74684 -2.73137 -0.158614
head 0.303962 -1.54258 -0.844725
rclavicle 1.25632e-013 9.22361e-014
rhumerus 82.0913 -16.4006 -25.0162
rradius 21.9417
rwrist 7.9787
rhand -30.5789 -21.3872
rfingers 7.12502
rthumb -3.87649 -51.3317
lclavicle 1.25632e-013 9.22361e-014
lhumerus 94.1624 7.02917 31.0066
lradius 25.2828
lwrist 30.6629
lhand -35.5972 -4.40136
lfingers 7.12502
lthumb -8.72106 25.3985
rfemur -81.7047 -17.2651 1.15202
rtibia 50.4523
rfoot -22.826 -12.1426
rtoes 0.617734
lfemur -82.2268 6.68613 -44.8721
ltibia 34.7544
lfoot 1.0595 -22.0471
ltoes 28.0648
1352
root 4.9568 15.7343 -3.50136 46.3138 -50.3531 15.4376
lowerback 53.0634 -0.264805 6.50056
upperback 17.9822 1.68098 4.82938
thorax -0.698744 0.419274 1.63473
lowerneck -13.0422 -1.48408 4.07946
upperneck -5.80972 -2.71996 -0.149472
head 0.286477 -1.53794 -0.836933
rclavicle 2.06736e-014 3.97569e-014
rhumerus 82.0433 -16.3862 -24.9905
rradius 21.9505
rwrist 7.98941
rhand -30.5645 -21.3883
rfingers 7.12502
rthumb -3.86262 -51.333
lclavicle 2.06736e-014 3.97569e-014
lhumerus 94.1896 7.08747 31.0955
lradius 25.3613
lwrist 31.1056
lhand -35.2595 -4.11959
lfingers 7.12502
lthumb -8.3952 25.6936
rfemur -81.7225 -17.2775 1.15354
rtibia 50.4707
rfoot -22.8234 -12.1413
rtoes 0.625933
lfemur -82.2304 6.67963 -44.8832
ltibia 34.7522
lfoot 1.08835 -22.0466
ltoes 28.0732
1353
root 4.95673 15.7338 -3.50291 46.2948 -50.3513 15.4585
lowerback 53.0534 -0.261665 6.50294
upperback 17.9717 1.68723 4.83335
thorax -0.70969 0.421991 1.63528
lowerneck -13.0457 -1.47742 4.05975
upperneck -5.87656 -2.70883 -0.146232
head 0.266146 -1.53362 -0.831319
rclavicle -8.26944e-014 1.43125e-014
rhumerus 81.9985 -16.3713 -24.9678
rradius 21.9603
rwrist 8.01034
rhand -30.5516 -21.3901
rfingers 7.12502
rthumb -3.85012 -51.3351
lclavicle -8.26944e-014 1.43125e-014
lhumerus 94.227 7.12667 31.2393
lradius 25.4313
lwrist 31.5144
lhand -34.8873 -3.80768
lfingers 7.12502
lthumb -8.03596 26.0195
rfemur -81.7385 -17.2934 1.1568
rtibia 50.4926
rfoot -22.8161 -12.1346
rtoes 0.616732
lfemur -82.2271 6.66652 -44.8766
ltibia 34.7533
lfoot 1.0995 -22.0347
ltoes 28.0713
1354
root 4.95681 15.7331 -3.50452 46.2646 -50.3504 15.4847
lowerback 53.0511 -0.259056 6.50175
upperback 17.9621 1.69182 4.83808
thorax -0.720715 0.423617 1.63907
lowerneck -13.0439 -1.4718 4.03787
upperneck -5.94146 -2.69849 -0.141585
head 0.245609 -1.52955 -0.824874
rclavicle 9.54166e-015 8.74653e-014
rhumerus 81.9706 -16.3566 -24.9761
rradius 21.9623
rwrist 8.06068
rhand -30.5367 -21.3833
rfingers 7.12502
rthumb -3.83578 -51.3285
lclavicle 9.54166e-015 8.74653e-014
lhumerus 94.2787 7.14363 31.4525
lradius 25.4911
lwrist 31.8805
lhand -34.4719 -3.45531
lfingers 7.12502
lthumb -7.6351 26.3869
rfemur -81.747 -17.3109 1.15465
rtibia 50.5161
rfoot -22.809 -12.1219
rtoes 0.603612
lfemur -82.2151 6.64975 -44.8618
ltibia 34.7563
lfoot 1.09712 -22.0184
ltoes 28.0577
1355
root 4.9569 15.7325 -3.50619 46.2215 -50.3498 15.5139
lowerback 53.0623 -0.257308 6.4984
upperback 17.9522 1.69542 4.84358
thorax -0.733363 0.424413 1.64535
lowerneck -13.0354 -1.46808 4.01418
upperneck -6.00258 -2.69006 -0.136383
head 0.225166 -1.52628 -0.81797
rclavicle 7.63333e-014 4.77083e-014
rhumerus 81.9543 -16.3428 -25.0029
rradius 21.9595
rwrist 8.12407
rhand -30.5194 -21.3701
rfingers 7.12502
rthumb -3.81907 -51.3156
lclavicle 7.63333e-014 4.77083e-014
lhumerus 94.3346 7.14381 31.7052
lradius 25.5511
lwrist 32.2685
lhand -34.0389 -3.10681
lfingers 7.12502
lthumb -7.21716 26.7501
rfemur -81.7417 -17.3256 1.14554
rtibia 50.5393
rfoot -22.8045 -12.1065
rtoes 0.588071
lfemur -82.1922 6.63597 -44.8455
ltibia 34.7605
lfoot 1.08979 -22.0032
ltoes 28.0363
1356
root 4.95705 15.7319 -3.50788 46.1678 -50.3459 15.5462
lowerback 53.0825 -0.261357 6.4991
upperback 17.9437 1.69471 4.84688
thorax -0.744731 0.423616 1.64934
lowerneck -13.0221 -1.46623 3.99258
upperneck -6.05909 -2.68417 -0.132402
head 0.205344 -1.5242 -0.811898
rclavicle 6.67916e-014 3.33958e-014
rhumerus 81.9448 -16.3327 -25.0338
rradius 21.9554
rwrist 8.18013
rhand -30.5004 -21.3537
rfingers 7.12502
rthumb -3.80074 -51.2995
lclavicle 6.67916e-014 3.33958e-014
lhumerus 94.3899 7.13354 31.975
lradius 25.6173
lwrist 32.7304
lhand -33.6008 -2.80098
lfingers 7.12502
lthumb -6.79418 27.07
rfemur -81.723 -17.3394 1.13038
rtibia 50.5611
rfoot -22.8034 -12.0903
rtoes 0.576122
lfemur -82.1588 6.62147 -44.8267
ltibia 34.763
lfoot 1.07644 -21.9869
ltoes 28.0027
1357
root 4.95711 15.7314 -3.5096 46.1095 -50.3428 15.5788
lowerback 53.1063 -0.267563 6.49921
upperback 17.9381 1.69087 4.84656
thorax -0.753034 0.421729 1.65097
lowerneck -13.005 -1.4652 3.97481
upperneck -6.10963 -2.67967 -0.128425
head 0.186745 -1.52271 -0.80655
rclavicle -9.54166e-015 2.22639e-014
rhumerus 81.944 -16.3253 -25.0735
rradius 21.9483
rwrist 8.23237
rhand -30.4801 -21.3378
rfingers 7.12502
rthumb -3.78106 -51.284
lclavicle -9.54166e-015 2.22639e-014
lhumerus 94.4361 7.1196 32.2299
lradius 25.694
lwrist 33.3088
lhand -33.1825 -2.57334
lfingers 7.12502
lthumb -6.3904 27.3103
rfemur -81.6971 -17.349 1.11005
rtibia 50.5808
rfoot -22.8048 -12.0743
rtoes 0.568498
lfemur -82.1166 6.6018 -44.7937
ltibia 34.7618
lfoot 1.04887 -21.9552
ltoes 27.9552
1358
root 4.95709 15.7311 -3.51131 46.0491 -50.3373 15.6113
lowerback 53.1332 -0.276746 6.50204
upperback 17.9347 1.68467 4.84407
thorax -0.758749 0.419158 1.65002
lowerneck -12.9828 -1.46605 3.96221
upperneck -6.15814 -2.67815 -0.125244
head 0.167854 -1.52279 -0.802396
rclavicle 1.08139e-013 1.68569e-013
rhumerus 81.9395 -16.3225 -25.0984
rradius 21.9451
rwrist 8.26482
rhand -30.4617 -21.3241
rfingers 7.12502
rthumb -3.76335 -51.2706
lclavicle 1.08139e-013 1.68569e-013
lhumerus 94.4785 7.10137 32.4738
lradius 25.7715
lwrist 33.9666
lhand -32.7827 -2.41151
lfingers 7.12502
lthumb -6.00442 27.4834
rfemur -81.6647 -17.355 1.0861
rtibia 50.5986
rfoot -22.8081 -12.0646
rtoes 0.557084
lfemur -82.0687 6.58115 -44.7582
ltibia 34.7556
lfoot 1.01589 -21.9225
ltoes 27.8964
